<svg width="32" height="32" viewBox="0 0 32 32" fill="none" xmlns="http://www.w3.org/2000/svg">
<g id="Logo">
<path id="Ellipse 384 (Stroke)" fill-rule="evenodd" clip-rule="evenodd" d="M20.0372 2.43919C20.0375 2.43922 20.0359 2.44154 20.0315 2.44601C20.0347 2.44139 20.0369 2.43915 20.0372 2.43919ZM19.8344 2.57145C19.6671 2.48795 19.421 2.39948 19.0939 2.31769C18.3238 2.12518 17.2297 2.00002 16 2.00002C14.7703 2.00002 13.6762 2.12518 12.9061 2.31769C12.579 2.39948 12.3329 2.48795 12.1656 2.57145C12.3329 2.65494 12.579 2.74342 12.9061 2.8252C13.6762 3.01772 14.7703 3.14287 16 3.14287C17.2297 3.14287 18.3238 3.01772 19.0939 2.8252C19.421 2.74342 19.6671 2.65494 19.8344 2.57145ZM11.9628 2.43919C11.9631 2.43915 11.9653 2.44139 11.9685 2.44601C11.9641 2.44154 11.9625 2.43922 11.9628 2.43919ZM11.9628 2.7037C11.9625 2.70367 11.9641 2.70136 11.9685 2.69688C11.9653 2.7015 11.9631 2.70374 11.9628 2.7037ZM20.0315 2.69688C20.0359 2.70136 20.0375 2.70367 20.0372 2.7037C20.0369 2.70374 20.0347 2.7015 20.0315 2.69688ZM16 3.7143C18.5247 3.7143 20.5714 3.20263 20.5714 2.57145C20.5714 1.94026 18.5247 1.42859 16 1.42859C13.4753 1.42859 11.4286 1.94026 11.4286 2.57145C11.4286 3.20263 13.4753 3.7143 16 3.7143Z" fill="#DDF4E8"/>
<path id="Ellipse 385 (Stroke)" fill-rule="evenodd" clip-rule="evenodd" d="M25.1907 7.41465C25.1908 7.41465 25.1897 7.41599 25.1871 7.41866C25.1892 7.41598 25.1905 7.41465 25.1907 7.41465ZM24.9328 7.57143C24.8797 7.54684 24.818 7.52072 24.7468 7.49348C24.3089 7.32602 23.6421 7.16417 22.7778 7.02436C21.0583 6.74621 18.6617 6.57143 16 6.57143C13.3383 6.57143 10.9417 6.74621 9.22221 7.02436C8.35794 7.16417 7.69112 7.32602 7.25324 7.49348C7.18201 7.52072 7.12028 7.54684 7.06716 7.57143C7.12028 7.59601 7.18201 7.62213 7.25324 7.64937C7.69112 7.81684 8.35794 7.97869 9.22221 8.1185C10.9417 8.39665 13.3383 8.57143 16 8.57143C18.6617 8.57143 21.0583 8.39665 22.7778 8.1185C23.6421 7.97869 24.3089 7.81684 24.7468 7.64937C24.818 7.62213 24.8797 7.59601 24.9328 7.57143ZM6.80933 7.41465C6.80946 7.41464 6.81079 7.41598 6.81294 7.41865C6.81027 7.41599 6.8092 7.41465 6.80933 7.41465ZM6.80933 7.72821C6.8092 7.7282 6.81027 7.72687 6.81294 7.72421C6.81079 7.72688 6.80946 7.72821 6.80933 7.72821ZM25.1871 7.7242C25.1897 7.72686 25.1908 7.7282 25.1907 7.72821C25.1905 7.72821 25.1892 7.72688 25.1871 7.7242ZM16 9.14286C21.3651 9.14286 25.7143 8.4393 25.7143 7.57143C25.7143 6.70355 21.3651 6 16 6C10.6349 6 6.28572 6.70355 6.28572 7.57143C6.28572 8.4393 10.6349 9.14286 16 9.14286Z" fill="#DDF4E8"/>
<path id="Ellipse 386 (Stroke)" fill-rule="evenodd" clip-rule="evenodd" d="M28.9681 14.2978C28.9623 14.2996 28.9564 14.3015 28.9505 14.3033C27.3891 14.7873 22.1824 15.1428 16 15.1428C9.81756 15.1428 4.61094 14.7873 3.04951 14.3033C3.04358 14.3015 3.0377 14.2996 3.03187 14.2978C2.73159 14.2028 2.57143 14.103 2.57143 14C2.57143 13.897 2.73159 13.7971 3.03187 13.7022C3.0377 13.7003 3.04358 13.6985 3.04951 13.6967C4.61094 13.2127 9.81756 12.8571 16 12.8571C22.1824 12.8571 27.3891 13.2127 28.9505 13.6967C28.9564 13.6985 28.9623 13.7003 28.9681 13.7022C29.2684 13.7971 29.4286 13.897 29.4286 14C29.4286 14.103 29.2684 14.2028 28.9681 14.2978ZM4.40999 14C4.98902 13.9135 5.71023 13.8329 6.55303 13.7612C8.96246 13.5562 12.3027 13.4285 16 13.4285C19.6973 13.4285 23.0375 13.5562 25.447 13.7612C26.2898 13.8329 27.011 13.9135 27.59 14C27.011 14.0864 26.2898 14.167 25.447 14.2387C23.0375 14.4438 19.6973 14.5714 16 14.5714C12.3027 14.5714 8.96246 14.4438 6.55303 14.2387C5.71023 14.167 4.98902 14.0864 4.40999 14Z" fill="#DDF4E8"/>
<path id="Ellipse 387 (Stroke)" fill-rule="evenodd" clip-rule="evenodd" d="M26.9543 21.286C26.9393 21.2904 26.9239 21.2948 26.9082 21.2992C25.4547 21.7053 21.1206 22 16 22C10.8794 22 6.54531 21.7053 5.0918 21.2992C5.07609 21.2948 5.06072 21.2904 5.04568 21.286C4.73713 21.1954 4.57143 21.0994 4.57143 21C4.57143 20.9006 4.73713 20.8046 5.04568 20.714C5.06071 20.7096 5.07609 20.7052 5.0918 20.7008C6.54531 20.2947 10.8794 20 16 20C21.1206 20 25.4547 20.2947 26.9082 20.7008C26.9239 20.7052 26.9393 20.7096 26.9543 20.714C27.2629 20.8046 27.4286 20.9006 27.4286 21C27.4286 21.0994 27.2629 21.1954 26.9543 21.286ZM6.65582 21C7.04111 20.9511 7.48047 20.9049 7.96859 20.8621C10.0155 20.683 12.8553 20.5714 16 20.5714C19.1447 20.5714 21.9845 20.683 24.0314 20.8621C24.5195 20.9049 24.9589 20.9511 25.3442 21C24.9589 21.0489 24.5195 21.0951 24.0314 21.1379C21.9845 21.317 19.1447 21.4286 16 21.4286C12.8553 21.4286 10.0155 21.317 7.96859 21.1379C7.48047 21.0951 7.04111 21.0489 6.65582 21Z" fill="#DDF4E8"/>
<path id="Ellipse 388 (Stroke)" fill-rule="evenodd" clip-rule="evenodd" d="M22.1309 27.1663C22.1309 27.1663 22.1309 27.1663 22.1309 27.1663C21.1799 27.4869 18.7935 27.7143 16 27.7143C13.2065 27.7143 10.8201 27.4869 9.86911 27.1663C9.8691 27.1663 9.86908 27.1663 9.86906 27.1663C9.58458 27.0704 9.42857 26.9662 9.42857 26.8571C9.42857 26.7481 9.58458 26.6439 9.86906 26.548C9.86908 26.548 9.8691 26.548 9.86911 26.548C10.8201 26.2274 13.2065 26 16 26C18.7935 26 21.1799 26.2274 22.1309 26.548C22.1309 26.548 22.1309 26.548 22.1309 26.548C22.4154 26.6439 22.5714 26.7481 22.5714 26.8571C22.5714 26.9662 22.4154 27.0704 22.1309 27.1663ZM11.1437 26.8571C11.2342 26.8437 11.3287 26.8305 11.4272 26.8177C12.5851 26.6667 14.2021 26.5714 16 26.5714C17.7979 26.5714 19.4149 26.6667 20.5728 26.8177C20.6713 26.8305 20.7658 26.8437 20.8563 26.8571C20.7658 26.8706 20.6713 26.8838 20.5728 26.8966C19.4149 27.0476 17.7979 27.1429 16 27.1429C14.2021 27.1429 12.5851 27.0476 11.4272 26.8966C11.3287 26.8838 11.2342 26.8706 11.1437 26.8571Z" fill="#DDF4E8"/>
<path id="Ellipse 389 (Stroke)" fill-rule="evenodd" clip-rule="evenodd" d="M16 30.2857C16.6312 30.2857 17.1429 30.0939 17.1429 29.8572C17.1429 29.6205 16.6312 29.4286 16 29.4286C15.3688 29.4286 14.8571 29.6205 14.8571 29.8572C14.8571 30.0939 15.3688 30.2857 16 30.2857Z" fill="#DDF4E8"/>
</g>
</svg>
