<svg width="48" height="48" viewBox="0 0 48 48" fill="none" xmlns="http://www.w3.org/2000/svg">
<g id="Logo">
<path id="Ellipse 384 (Stroke)" fill-rule="evenodd" clip-rule="evenodd" d="M30.0558 3.65872C30.0563 3.65878 30.0539 3.66224 30.0472 3.66896C30.052 3.66202 30.0554 3.65866 30.0558 3.65872ZM29.7517 3.85711C29.5007 3.73186 29.1316 3.59915 28.6409 3.47648C27.4858 3.1877 25.8446 2.99997 24 2.99997C22.1555 2.99997 20.5143 3.1877 19.3592 3.47648C18.8685 3.59915 18.4993 3.73186 18.2484 3.85711C18.4993 3.98235 18.8685 4.11506 19.3592 4.23774C20.5143 4.52651 22.1555 4.71425 24 4.71425C25.8446 4.71425 27.4858 4.52651 28.6409 4.23774C29.1316 4.11506 29.5007 3.98235 29.7517 3.85711ZM17.9442 3.65872C17.9447 3.65866 17.948 3.66202 17.9528 3.66896C17.9462 3.66224 17.9438 3.65878 17.9442 3.65872ZM17.9442 4.0555C17.9438 4.05544 17.9462 4.05197 17.9528 4.04526C17.948 4.0522 17.9447 4.05555 17.9442 4.0555ZM30.0472 4.04526C30.0539 4.05197 30.0563 4.05544 30.0558 4.0555C30.0554 4.05555 30.052 4.05219 30.0472 4.04526ZM24 5.57139C27.7871 5.57139 30.8572 4.80388 30.8572 3.85711C30.8572 2.91033 27.7871 2.14282 24 2.14282C20.2129 2.14282 17.1429 2.91033 17.1429 3.85711C17.1429 4.80388 20.2129 5.57139 24 5.57139Z" fill="#134D2E"/>
<path id="Ellipse 385 (Stroke)" fill-rule="evenodd" clip-rule="evenodd" d="M37.786 11.122C37.7862 11.122 37.7846 11.124 37.7806 11.128C37.7838 11.124 37.7858 11.122 37.786 11.122ZM37.3993 11.3571C37.3196 11.3203 37.227 11.2811 37.1202 11.2402C36.4633 10.989 35.4631 10.7462 34.1667 10.5365C31.5875 10.1193 27.9926 9.85714 24 9.85714C20.0075 9.85714 16.4125 10.1193 13.8333 10.5365C12.5369 10.7462 11.5367 10.989 10.8799 11.2402C10.773 11.2811 10.6804 11.3203 10.6008 11.3571C10.6804 11.394 10.773 11.4332 10.8799 11.4741C11.5367 11.7253 12.5369 11.968 13.8333 12.1778C16.4125 12.595 20.0075 12.8571 24 12.8571C27.9926 12.8571 31.5875 12.595 34.1667 12.1778C35.4631 11.968 36.4633 11.7253 37.1202 11.4741C37.227 11.4332 37.3196 11.394 37.3993 11.3571ZM10.214 11.122C10.2142 11.122 10.2162 11.124 10.2194 11.128C10.2154 11.124 10.2138 11.122 10.214 11.122ZM10.214 11.5923C10.2138 11.5923 10.2154 11.5903 10.2194 11.5863C10.2162 11.5903 10.2142 11.5923 10.214 11.5923ZM37.7806 11.5863C37.7846 11.5903 37.7862 11.5923 37.786 11.5923C37.7858 11.5923 37.7838 11.5903 37.7806 11.5863ZM24 13.7143C32.0476 13.7143 38.5714 12.659 38.5714 11.3571C38.5714 10.0553 32.0476 9 24 9C15.9524 9 9.42859 10.0553 9.42859 11.3571C9.42859 12.659 15.9524 13.7143 24 13.7143Z" fill="#134D2E"/>
<path id="Ellipse 386 (Stroke)" fill-rule="evenodd" clip-rule="evenodd" d="M43.4522 21.4468C43.4434 21.4495 43.4346 21.4523 43.4257 21.455C41.0836 22.181 33.2736 22.7143 24 22.7143C14.7263 22.7143 6.91637 22.181 4.57424 21.455C4.56534 21.4523 4.55652 21.4495 4.54778 21.4468C4.09736 21.3043 3.85712 21.1546 3.85712 21.0001C3.85712 20.8455 4.09735 20.6958 4.54778 20.5534C4.55652 20.5506 4.56534 20.5478 4.57424 20.5451C6.91637 19.8191 14.7263 19.2858 24 19.2858C33.2736 19.2858 41.0836 19.8191 43.4257 20.5451C43.4346 20.5478 43.4434 20.5506 43.4522 20.5534C43.9026 20.6958 44.1428 20.8455 44.1428 21.0001C44.1428 21.1546 43.9026 21.3043 43.4522 21.4468ZM6.61496 21.0001C7.4835 20.8704 8.56531 20.7495 9.82951 20.6419C13.4437 20.3343 18.454 20.1429 24 20.1429C29.546 20.1429 34.5563 20.3343 38.1704 20.6419C39.4346 20.7495 40.5164 20.8704 41.385 21.0001C40.5164 21.1297 39.4346 21.2506 38.1704 21.3582C34.5563 21.6658 29.546 21.8572 24 21.8572C18.454 21.8572 13.4437 21.6658 9.82951 21.3582C8.56531 21.2506 7.4835 21.1297 6.61496 21.0001Z" fill="#134D2E"/>
<path id="Ellipse 387 (Stroke)" fill-rule="evenodd" clip-rule="evenodd" d="M40.4314 31.929C40.4089 31.9356 40.3858 31.9422 40.3623 31.9488C38.182 32.558 31.6809 33 24 33C16.319 33 9.81794 32.558 7.63767 31.9488C7.61411 31.9422 7.59105 31.9356 7.5685 31.929C7.10567 31.7931 6.85712 31.6491 6.85712 31.5C6.85712 31.3509 7.10567 31.2069 7.5685 31.071C7.59105 31.0644 7.61411 31.0578 7.63767 31.0512C9.81793 30.442 16.319 30 24 30C31.6809 30 38.182 30.442 40.3623 31.0512C40.3858 31.0578 40.4089 31.0644 40.4314 31.071C40.8943 31.2069 41.1428 31.3509 41.1428 31.5C41.1428 31.6491 40.8943 31.7931 40.4314 31.929ZM9.9837 31.5C10.5616 31.4267 11.2207 31.3573 11.9529 31.2932C15.0233 31.0246 19.2829 30.8571 24 30.8571C28.7171 30.8571 32.9767 31.0246 36.0471 31.2932C36.7793 31.3573 37.4383 31.4267 38.0162 31.5C37.4383 31.5733 36.7793 31.6427 36.0471 31.7068C32.9767 31.9754 28.7171 32.1429 24 32.1429C19.2829 32.1429 15.0233 31.9754 11.9529 31.7068C11.2207 31.6427 10.5616 31.5733 9.9837 31.5Z" fill="#134D2E"/>
<path id="Ellipse 388 (Stroke)" fill-rule="evenodd" clip-rule="evenodd" d="M33.1964 40.7495C33.1964 40.7495 33.1964 40.7495 33.1964 40.7495C31.7699 41.2304 28.1903 41.5714 24 41.5714C19.8097 41.5714 16.2301 41.2304 14.8037 40.7495C14.8037 40.7495 14.8036 40.7495 14.8036 40.7495C14.3769 40.6056 14.1429 40.4492 14.1429 40.2857C14.1429 40.1222 14.3769 39.9658 14.8036 39.822C14.8036 39.8219 14.8037 39.8219 14.8037 39.8219C16.2301 39.341 19.8097 39 24 39C28.1903 39 31.7699 39.341 33.1964 39.8219C33.1964 39.8219 33.1964 39.8219 33.1964 39.822C33.6232 39.9658 33.8572 40.1222 33.8572 40.2857C33.8572 40.4492 33.6232 40.6056 33.1964 40.7495ZM16.7156 40.2857C16.8513 40.2655 16.9931 40.2458 17.1408 40.2265C18.8776 40 21.3031 39.8571 24 39.8571C26.6969 39.8571 29.1224 40 30.8592 40.2265C31.007 40.2458 31.1488 40.2655 31.2845 40.2857C31.1488 40.3059 31.007 40.3256 30.8592 40.3449C29.1224 40.5714 26.6969 40.7143 24 40.7143C21.3031 40.7143 18.8776 40.5714 17.1408 40.3449C16.9931 40.3256 16.8513 40.3059 16.7156 40.2857Z" fill="#134D2E"/>
<path id="Ellipse 389 (Stroke)" fill-rule="evenodd" clip-rule="evenodd" d="M24 45.4285C24.9468 45.4285 25.7143 45.1407 25.7143 44.7857C25.7143 44.4306 24.9468 44.1428 24 44.1428C23.0532 44.1428 22.2857 44.4306 22.2857 44.7857C22.2857 45.1407 23.0532 45.4285 24 45.4285Z" fill="#134D2E"/>
</g>
</svg>
