<svg width="48" height="48" viewBox="0 0 48 48" fill="none" xmlns="http://www.w3.org/2000/svg">
<g id="users">
<path id="Union" fill-rule="evenodd" clip-rule="evenodd" d="M12 14C12 10.6863 14.6863 8 18 8C21.3137 8 24 10.6863 24 14C24 17.3137 21.3137 20 18 20C14.6863 20 12 17.3137 12 14ZM18 4C12.4772 4 8 8.47715 8 14C8 19.5228 12.4772 24 18 24C23.5228 24 28 19.5228 28 14C28 8.47715 23.5228 4 18 4ZM10 28C7.34783 28 4.8043 29.0536 2.92893 30.9289C1.05357 32.8043 0 35.3478 0 38V42C0 43.1046 0.89543 44 2 44C3.10457 44 4 43.1046 4 42V38C4 36.4087 4.63214 34.8826 5.75736 33.7574C6.88258 32.6321 8.4087 32 10 32H26C27.5913 32 29.1174 32.6321 30.2426 33.7574C31.3679 34.8826 32 36.4087 32 38V42C32 43.1046 32.8954 44 34 44C35.1046 44 36 43.1046 36 42V38C36 35.3478 34.9464 32.8043 33.0711 30.9289C31.1957 29.0536 28.6522 28 26 28H10ZM38.0635 29.76C38.3396 28.6905 39.4305 28.0474 40.5 28.3235C42.6453 28.8774 44.5459 30.1282 45.9034 31.8793C47.2609 33.6304 47.9983 35.7828 48 37.9985V38V42C48 43.1046 47.1046 44 46 44C44.8954 44 44 43.1046 44 42V38.0015V38.0009C43.9989 36.6717 43.5564 35.3805 42.7421 34.33C41.9276 33.2793 40.7872 32.5289 39.5 32.1965C38.4305 31.9204 37.7874 30.8295 38.0635 29.76ZM32.4961 4.32251C31.426 4.04853 30.3365 4.69388 30.0625 5.76393C29.7885 6.83398 30.4339 7.92353 31.5039 8.19751C32.7945 8.52796 33.9385 9.27856 34.7554 10.331C35.5723 11.3834 36.0157 12.6778 36.0157 14.01C36.0157 15.3423 35.5723 16.6366 34.7554 17.689C33.9385 18.7415 32.7945 19.4921 31.5039 19.8225C30.4339 20.0965 29.7885 21.186 30.0625 22.2561C30.3365 23.3261 31.426 23.9715 32.4961 23.6975C34.6471 23.1468 36.5537 21.8958 37.9152 20.1417C39.2767 18.3877 40.0157 16.2304 40.0157 14.01C40.0157 11.7896 39.2767 9.63231 37.9152 7.87829C36.5537 6.12426 34.6471 4.87326 32.4961 4.32251Z" fill="#134D2E"/>
</g>
</svg>
